<svg xmlns="http://www.w3.org/2000/svg" viewBox="0 0 64 64">
  <rect width="64" height="64" rx="16" fill="#ff4fa3"/>
  <path d="M9 21v-8a4 4 0 0 1 4-4h8M43 9h8a4 4 0 0 1 4 4v8M55 43v8a4 4 0 0 1-4 4h-8M21 55h-8a4 4 0 0 1-4-4v-8" fill="none" stroke="#1b1036" stroke-width="5.5" stroke-linecap="round" stroke-linejoin="round"/>
  <g fill="none" stroke="#1b1036" stroke-width="11" stroke-linecap="round" stroke-linejoin="round">
    <path d="M23.8 25a8.2 8.2 0 1 1 12 7.3c-2.4 1.3-3.8 2.8-3.8 5.3v1.1" transform="translate(0 3)"/>
    <path d="M23.8 25a8.2 8.2 0 1 1 12 7.3c-2.4 1.3-3.8 2.8-3.8 5.3v1.1"/>
  </g>
  <path d="M23.8 25a8.2 8.2 0 1 1 12 7.3c-2.4 1.3-3.8 2.8-3.8 5.3v1.1" fill="none" stroke="#fff" stroke-width="5" stroke-linecap="round" stroke-linejoin="round"/>
  <circle cx="32" cy="50" r="5.6" fill="#1b1036"/>
  <circle cx="32" cy="47" r="5.6" fill="#1b1036"/>
  <circle cx="32" cy="47" r="3" fill="#fff"/>
</svg>
